<svg width="43" height="43" viewBox="0 0 43 43" fill="none" xmlns="http://www.w3.org/2000/svg">
<path fill-rule="evenodd" clip-rule="evenodd" d="M1.05001 36.35L36.35 1.05C37.75 -0.35 39.95 -0.35 41.35 1.05L41.45 1.15C42.85 2.55 42.85 4.75 41.45 6.15L6.15001 41.45C4.75001 42.85 2.55001 42.85 1.15001 41.45L1.05001 41.35C-0.249988 39.95 -0.249988 37.75 1.05001 36.35Z" fill="#DADADA"/>
<path fill-rule="evenodd" clip-rule="evenodd" d="M6.15 1.05001L41.45 36.35C42.85 37.75 42.85 39.95 41.45 41.35L41.35 41.45C39.95 42.85 37.75 42.85 36.35 41.45L1.05 6.15001C-0.35 4.75001 -0.35 2.55001 1.05 1.15001L1.15 1.05001C2.55 -0.249988 4.75 -0.249988 6.15 1.05001Z" fill="#DADADA"/>
</svg>
